<svg xmlns="http://www.w3.org/2000/svg" xmlns:xlink="http://www.w3.org/1999/xlink" version="1.1" x="0" y="0" width="175" height="50" viewBox="0 0 175 49" xml:space="preserve" class="logo-2600hz">
<path class="symbol" d="M42.1 0.6c-0.8-0.8-2-0.8-2.7 0 -0.8 0.8-0.8 2 0 2.8 0.8 0.8 2 0.8 2.7 0C42.9 2.6 42.9 1.3 42.1 0.6zM11.7 33.9l22-22.1c-0.4-0.5-0.8-1-1.3-1.5 -0.5-0.5-0.9-0.9-1.4-1.3L9 31.2c-0.8 0.8-0.8 2 0 2.8C9.8 34.7 11 34.7 11.7 33.9zM38 7.5c0.8-0.8 0.8-2 0-2.8 -0.8-0.8-2-0.8-2.7 0l-2 2C26 0.7 15.2 1.2 8.4 8c-5.1 5.1-6.6 12.4-4.6 18.8l-3.3 3.3c-0.8 0.8-0.8 2 0 2.8 0.8 0.8 2 0.8 2.7 0l15.9-16c0.8-0.8 0.8-2 0-2.8 -0.8-0.8-2-0.8-2.7 0L8 22.7c-0.9-4.8 0.5-9.9 4.2-13.5 5.9-6 15.5-6 21.5 0 5.9 6 5.9 15.6 0 21.6 -3.1 3.1-7.2 4.6-11.3 4.5L18 39.6c5.9 1.2 12.2-0.5 16.8-5.1 6.8-6.8 7.2-17.7 1.3-25L38 7.5zM23.4 28.9c-0.8-0.8-2-0.8-2.7 0L10 39.6c-0.8 0.8-0.8 2 0 2.8 0.8 0.8 2 0.8 2.7 0l10.7-10.7C24.2 30.9 24.2 29.7 23.4 28.9zM24.8 24.8c-0.8 0.8-0.8 2 0 2.8 0.8 0.8 2 0.8 2.7 0 0.8-0.8 0.8-2 0-2.8C26.8 24 25.6 24 24.8 24.8zM23.3 12.7c0.8-0.8 0.8-2 0-2.8 -0.8-0.8-2-0.8-2.7 0 -0.8 0.8-0.8 2 0 2.8C21.3 13.5 22.5 13.5 23.3 12.7z"></path>

<path class="wordmark" d="M79.4 16.6l3.9-3.9c0.8-0.8 0.8-2 0-2.7 -0.4-0.4-0.9-0.6-1.4-0.6 -0.3 0-0.7 0.1-1 0.3l-0.1 0.1c-0.1 0-0.1 0.1-0.2 0.1L79.5 11l-0.1 0.1L71.4 19c-0.8 0.9-1.3 1.7-1.7 2.6 -0.4 0.9-0.7 2-0.7 3.1 0 0.1 0 0.2 0 0.3 0 0.1 0 0.2 0 0.3 0 4.9 3.9 8.9 8.8 8.9 4.9 0 8.8-4 8.8-8.9C86.7 20.9 83.5 17.3 79.4 16.6zM77.9 30.3c-2.7 0-5-2.2-5-5 0-2.7 2.2-5 5-5 2.7 0 5 2.2 5 5C82.8 28 80.6 30.3 77.9 30.3zM99.7 9.3C92.9 9.3 88 14.9 88 21.7c0 6.8 4.9 12.4 11.7 12.4 6.8 0 11.7-5.5 11.7-12.4S106.5 9.3 99.7 9.3zM99.7 30.2c-4.7 0-7.9-3.8-7.9-8.5 0-4.7 3.2-8.5 7.9-8.5 4.7 0 7.9 3.8 7.9 8.5C107.6 26.4 104.4 30.2 99.7 30.2zM124.4 9.3c-6.8 0-11.7 5.6-11.7 12.4 0 6.8 4.9 12.4 11.7 12.4 6.8 0 11.7-5.5 11.7-12.4S131.2 9.3 124.4 9.3zM124.4 30.2c-4.7 0-7.9-3.8-7.9-8.5 0-4.7 3.2-8.5 7.9-8.5 4.7 0 7.9 3.8 7.9 8.5C132.3 26.4 129.1 30.2 124.4 30.2zM53.1 32.7c0.2 0.6 0.8 1.4 1.9 1.4 0 0 11.1 0 11.1 0 1.1 0 1.9-0.9 1.9-1.9 0-1.1-0.9-2-1.9-2 0 0-9.8 0-9.8 0 -0.4-3.5 2.2-5.5 4.4-5.7l0.9-0.1c3.7-0.5 6.4-3.7 6.4-7.5 0-4.2-3.4-7.6-7.6-7.6 -3.5 0-6.4 2.4-7.3 5.6l0 0c0 0.1-0.1 0.3-0.1 0.5 0 1.1 0.9 1.9 1.9 1.9 0.9 0 1.7-0.6 1.9-1.5l0-0.1c0.5-1.5 1.9-2.6 3.5-2.6 2 0 3.7 1.7 3.7 3.7 0 1.9-1.3 3.4-3.1 3.6l-0.3 0c-4.7 0.3-8.3 4.3-8.3 8.6C52.6 29.2 52.5 30.9 53.1 32.7z"></path>
<path class="wordmark" d="M153.6 9.3c-1.1 0-1.9 0.9-1.9 1.9v5.5h-9.9v-5.5c0-1.1-0.9-1.9-1.9-1.9 -1.1 0-1.9 0.9-1.9 1.9v20.9c0 1.1 0.9 1.9 1.9 1.9 1.1 0 1.9-0.9 1.9-1.9V20.6h9.9v11.5c0 1.1 0.9 1.9 1.9 1.9s1.9-0.9 1.9-1.9V11.3C155.5 10.2 154.6 9.3 153.6 9.3zM173.1 30.2h-9L174.2 20c0.8-0.8 0.8-2 0-2.7 -0.4-0.4-0.9-0.6-1.4-0.6 0 0 0 0 0 0h-13.5c-1.1 0-1.9 0.9-1.9 2 0 1.1 0.9 1.9 1.9 1.9h8.9L158 30.8c-0.8 0.8-0.8 2 0 2.7 0.3 0.3 0.7 0.5 1.1 0.5 0.1 0 0.1 0 0.2 0 0 0 0 0 0 0h13.7c1.1 0 1.9-0.9 1.9-1.9C175 31.1 174.1 30.2 173.1 30.2z"></path>

<path class="attribution" d="M103.3 45.2c0 0.6-0.1 1.1-0.3 1.5 -0.2 0.5-0.4 0.9-0.7 1.2s-0.7 0.6-1.1 0.8c-0.4 0.2-0.9 0.3-1.5 0.3 -0.5 0-1-0.1-1.5-0.3 -0.4-0.2-0.8-0.4-1.1-0.8s-0.6-0.7-0.7-1.2c-0.2-0.5-0.3-1-0.3-1.5s0.1-1.1 0.3-1.5c0.2-0.5 0.4-0.9 0.7-1.2 0.3-0.3 0.7-0.6 1.1-0.8s0.9-0.3 1.5-0.3c0.5 0 1 0.1 1.5 0.3s0.8 0.4 1.1 0.8c0.3 0.3 0.6 0.7 0.7 1.2C103.2 44.2 103.3 44.7 103.3 45.2zM102.3 45.2c0-0.5-0.1-0.9-0.2-1.2 -0.1-0.4-0.3-0.7-0.5-0.9 -0.2-0.2-0.5-0.4-0.8-0.6s-0.7-0.2-1.1-0.2c-0.4 0-0.8 0.1-1.1 0.2s-0.6 0.3-0.8 0.6c-0.2 0.2-0.4 0.6-0.5 0.9 -0.1 0.4-0.2 0.8-0.2 1.2 0 0.5 0.1 0.9 0.2 1.2 0.1 0.4 0.3 0.7 0.5 0.9 0.2 0.2 0.5 0.4 0.8 0.6 0.3 0.1 0.7 0.2 1.1 0.2 0.4 0 0.8-0.1 1.1-0.2 0.3-0.1 0.6-0.3 0.8-0.6 0.2-0.2 0.4-0.6 0.5-0.9C102.2 46.1 102.3 45.7 102.3 45.2zM106.6 46.2v2.8h-1v-7.4h2.2c0.5 0 0.9 0.1 1.2 0.2 0.3 0.1 0.6 0.3 0.9 0.5 0.2 0.2 0.4 0.4 0.5 0.7 0.1 0.3 0.2 0.6 0.2 0.9 0 0.3-0.1 0.7-0.2 0.9 -0.1 0.3-0.3 0.5-0.5 0.7 -0.2 0.2-0.5 0.4-0.9 0.5 -0.3 0.1-0.7 0.2-1.2 0.2H106.6zM106.6 45.4h1.2c0.3 0 0.5 0 0.8-0.1 0.2-0.1 0.4-0.2 0.5-0.3 0.1-0.1 0.3-0.3 0.3-0.5 0.1-0.2 0.1-0.4 0.1-0.6 0-0.5-0.1-0.8-0.4-1.1 -0.3-0.3-0.7-0.4-1.3-0.4h-1.2V45.4zM117.2 41.5v0.8h-3.5v2.5h2.9v0.8h-2.9v2.5h3.5v0.8h-4.5v-7.4H117.2zM120 41.6c0 0 0.1 0.1 0.1 0.1l4.3 5.6c0-0.1 0-0.2 0-0.3 0-0.1 0-0.2 0-0.2v-5.2h0.9v7.4h-0.5c-0.1 0-0.1 0-0.2 0 -0.1 0-0.1-0.1-0.2-0.1l-4.2-5.6c0 0.1 0 0.2 0 0.3 0 0.1 0 0.2 0 0.2v5.3h-0.9v-7.4h0.5C119.9 41.5 120 41.5 120 41.6zM134.9 42.7c0 0.1-0.1 0.1-0.1 0.1 0 0-0.1 0-0.1 0 -0.1 0-0.1 0-0.2-0.1 -0.1-0.1-0.2-0.1-0.3-0.2 -0.1-0.1-0.3-0.1-0.4-0.2 -0.2-0.1-0.4-0.1-0.6-0.1 -0.2 0-0.4 0-0.6 0.1 -0.2 0.1-0.3 0.1-0.4 0.2 -0.1 0.1-0.2 0.2-0.3 0.4 -0.1 0.1-0.1 0.3-0.1 0.5 0 0.2 0 0.4 0.2 0.5 0.1 0.1 0.2 0.3 0.4 0.3 0.2 0.1 0.4 0.2 0.6 0.2 0.2 0.1 0.4 0.1 0.6 0.2 0.2 0.1 0.4 0.2 0.6 0.3 0.2 0.1 0.4 0.2 0.6 0.4 0.2 0.1 0.3 0.3 0.4 0.5 0.1 0.2 0.2 0.5 0.2 0.8 0 0.3-0.1 0.6-0.2 0.9 -0.1 0.3-0.3 0.5-0.5 0.7s-0.5 0.4-0.8 0.5c-0.3 0.1-0.7 0.2-1 0.2 -0.5 0-0.9-0.1-1.3-0.3s-0.7-0.4-1-0.7l0.3-0.5c0 0 0.1-0.1 0.1-0.1 0 0 0.1 0 0.1 0 0.1 0 0.2 0 0.2 0.1 0.1 0.1 0.2 0.2 0.3 0.3 0.1 0.1 0.3 0.2 0.5 0.3 0.2 0.1 0.4 0.1 0.7 0.1 0.2 0 0.4 0 0.6-0.1s0.3-0.2 0.5-0.3 0.2-0.3 0.3-0.4c0.1-0.2 0.1-0.3 0.1-0.6 0-0.2-0.1-0.4-0.2-0.5 -0.1-0.1-0.2-0.3-0.4-0.4 -0.2-0.1-0.4-0.2-0.6-0.2s-0.4-0.1-0.6-0.2c-0.2-0.1-0.4-0.2-0.6-0.2s-0.4-0.2-0.6-0.4c-0.2-0.1-0.3-0.3-0.4-0.6 -0.1-0.2-0.2-0.5-0.2-0.8 0-0.3 0.1-0.5 0.2-0.8 0.1-0.2 0.2-0.5 0.4-0.6 0.2-0.2 0.4-0.3 0.7-0.5 0.3-0.1 0.6-0.2 1-0.2 0.4 0 0.8 0.1 1.1 0.2 0.3 0.1 0.6 0.3 0.9 0.6L134.9 42.7zM144.4 45.2c0 0.6-0.1 1.1-0.3 1.5 -0.2 0.5-0.4 0.9-0.7 1.2 -0.3 0.3-0.7 0.6-1.1 0.8 -0.4 0.2-0.9 0.3-1.5 0.3 -0.5 0-1-0.1-1.5-0.3 -0.4-0.2-0.8-0.4-1.1-0.8s-0.6-0.7-0.7-1.2c-0.2-0.5-0.3-1-0.3-1.5s0.1-1.1 0.3-1.5c0.2-0.5 0.4-0.9 0.7-1.2 0.3-0.3 0.7-0.6 1.1-0.8s0.9-0.3 1.5-0.3c0.5 0 1 0.1 1.5 0.3s0.8 0.4 1.1 0.8c0.3 0.3 0.6 0.7 0.7 1.2S144.4 44.7 144.4 45.2zM143.3 45.2c0-0.5-0.1-0.9-0.2-1.2 -0.1-0.4-0.3-0.7-0.5-0.9 -0.2-0.2-0.5-0.4-0.8-0.6s-0.7-0.2-1.1-0.2c-0.4 0-0.8 0.1-1.1 0.2s-0.6 0.3-0.8 0.6c-0.2 0.2-0.4 0.6-0.5 0.9 -0.1 0.4-0.2 0.8-0.2 1.2 0 0.5 0.1 0.9 0.2 1.2 0.1 0.4 0.3 0.7 0.5 0.9 0.2 0.2 0.5 0.4 0.8 0.6 0.3 0.1 0.7 0.2 1.1 0.2 0.4 0 0.8-0.1 1.1-0.2 0.3-0.1 0.6-0.3 0.8-0.6 0.2-0.2 0.4-0.6 0.5-0.9C143.3 46.1 143.3 45.7 143.3 45.2zM149.5 48.1c0.3 0 0.6-0.1 0.8-0.2 0.2-0.1 0.4-0.2 0.6-0.4 0.2-0.2 0.3-0.4 0.4-0.7 0.1-0.3 0.1-0.5 0.1-0.8v-4.5h1V46c0 0.4-0.1 0.8-0.2 1.2 -0.1 0.4-0.3 0.7-0.6 0.9 -0.3 0.3-0.6 0.5-0.9 0.6 -0.4 0.2-0.8 0.2-1.2 0.2 -0.5 0-0.9-0.1-1.2-0.2s-0.7-0.4-0.9-0.6c-0.3-0.3-0.4-0.6-0.6-0.9 -0.1-0.4-0.2-0.8-0.2-1.2v-4.5h1V46c0 0.3 0 0.6 0.1 0.9 0.1 0.3 0.2 0.5 0.4 0.7 0.2 0.2 0.4 0.3 0.6 0.4C149 48.1 149.2 48.1 149.5 48.1zM156.2 45.8v3.1h-1v-7.4h2.1c0.5 0 0.9 0 1.2 0.1 0.3 0.1 0.6 0.2 0.8 0.4 0.2 0.2 0.4 0.4 0.5 0.6 0.1 0.3 0.2 0.5 0.2 0.8 0 0.3 0 0.5-0.1 0.7s-0.2 0.4-0.4 0.6c-0.2 0.2-0.3 0.3-0.6 0.5 -0.2 0.1-0.5 0.2-0.8 0.3 0.1 0.1 0.2 0.2 0.3 0.3l2.1 2.9h-0.9c-0.2 0-0.3-0.1-0.4-0.2l-1.9-2.6c-0.1-0.1-0.1-0.1-0.2-0.2 -0.1 0-0.2-0.1-0.3-0.1H156.2zM156.2 45.1h1c0.3 0 0.5 0 0.8-0.1 0.2-0.1 0.4-0.2 0.6-0.3 0.1-0.1 0.3-0.3 0.3-0.5 0.1-0.2 0.1-0.4 0.1-0.6 0-0.4-0.1-0.8-0.4-1 -0.3-0.2-0.7-0.3-1.3-0.3h-1.1V45.1zM167.6 47.4c0.1 0 0.1 0 0.1 0.1l0.4 0.4c-0.3 0.3-0.7 0.6-1.1 0.8 -0.4 0.2-0.9 0.3-1.5 0.3 -0.5 0-1-0.1-1.4-0.3 -0.4-0.2-0.8-0.4-1.1-0.8 -0.3-0.3-0.5-0.7-0.7-1.2 -0.2-0.5-0.2-1-0.2-1.5s0.1-1.1 0.3-1.5c0.2-0.5 0.4-0.9 0.8-1.2 0.3-0.3 0.7-0.6 1.2-0.8s1-0.3 1.5-0.3c0.5 0 1 0.1 1.4 0.3 0.4 0.2 0.7 0.4 1 0.7l-0.3 0.5c0 0-0.1 0.1-0.1 0.1 0 0-0.1 0-0.1 0 0 0-0.1 0-0.1 0 0 0-0.1-0.1-0.2-0.1 -0.1 0-0.1-0.1-0.2-0.2 -0.1-0.1-0.2-0.1-0.3-0.2 -0.1 0-0.3-0.1-0.4-0.1 -0.2 0-0.4 0-0.6 0 -0.4 0-0.8 0.1-1.1 0.2 -0.3 0.1-0.6 0.3-0.8 0.6 -0.2 0.3-0.4 0.6-0.6 0.9 -0.1 0.4-0.2 0.8-0.2 1.2 0 0.5 0.1 0.9 0.2 1.2 0.1 0.4 0.3 0.7 0.5 0.9 0.2 0.2 0.5 0.4 0.8 0.6 0.3 0.1 0.6 0.2 1 0.2 0.2 0 0.4 0 0.6 0s0.3-0.1 0.5-0.1c0.1-0.1 0.3-0.1 0.4-0.2 0.1-0.1 0.3-0.2 0.4-0.3C167.5 47.4 167.5 47.4 167.6 47.4zM174.8 41.5v0.8h-3.5v2.5h2.9v0.8h-2.9v2.5h3.5v0.8h-4.5v-7.4H174.8z"></path>
</svg>
