<svg xmlns:dc="http://purl.org/dc/elements/1.1/" xmlns:cc="http://creativecommons.org/ns#" xmlns:rdf="http://www.w3.org/1999/02/22-rdf-syntax-ns#" xmlns:svg="http://www.w3.org/2000/svg" xmlns="http://www.w3.org/2000/svg" version="1.1" id="Lager_1" x="0px" y="0px" width="278" height="60" viewBox="0 0 278 60.000001" enable-background="new 0 0 403.25 353.688" xml:space="preserve" class="erlang-logo"><g id="g3209" transform="matrix(0.15590774,0,0,0.15590774,10,41.168302)"><g transform="translate(-10.022003,-204.5127)" id="g3023"><path style="fill:#a90533" id="path7" d="M 69.974,251.962 C 40.3,220.518 22.938,177.078 22.982,125.248 22.941,79.411 37.343,40.012 62.102,10.032 l -0.04,0.015 -52.04,0 0,0 0,241.92 59.915,0 0.037,-0.005 z" /><path style="fill:#a90533" id="path9" d="m 344.046,251.982 c 12.783,-13.691 24.237,-29.815 34.616,-48.255 l -57.6,-28.8 c -20.229,32.887 -49.812,63.158 -90.72,63.36 -59.537,-0.202 -82.929,-51.112 -82.8,-116.64 l 222.48,0 0,0 c 0.297,-7.398 0.297,-10.838 0,-14.399 1.452,-38.985 -8.88,-71.754 -27.675,-97.273 l -0.097,0.073 50.092,0 0,241.92 -48.405,0 0.109,0.014 z" /><path style="fill:#a90533" id="path11" d="m 151.143,65.487 c 2.463,-29.668 25.854,-49.62 53.28,-49.68 27.613,0.06 47.564,20.012 48.24,49.68 l -101.52,0 0,0 z" /></g><g transform="matrix(0.96898395,0,0,0.96898395,57.056122,-190.69465)" id="erlang-text"><polygon id="polygon13" points="40.982,306.688 22.263,306.688 22.263,293.007 41.703,293.007 41.703,293.007 41.703,282.928 10.743,282.928 10.743,342.688 41.703,342.688 41.703,332.607 22.263,332.607 22.263,316.768 40.982,316.768 " transform="matrix(4.2243018,0,0,4.1787607,370.02523,-1185.7744)" /><path id="path15" d="m 705.0479,140.92784 c 32.60317,-4.78887 50.50576,-36.74803 51.70545,-69.200283 -1.19969,-53.091155 -35.99104,-75.0589005 -85.16192,-75.2176934 l -66.91294,0 0,249.7227464 48.66396,0 0,-99.28736 60.82994,99.28736 60.82995,0 -69.95444,-105.30477 0,0 z m -51.70968,-105.300597 6.08299,0 c 26.54975,0.986188 46.47577,6.978531 45.62247,39.113201 0.8533,29.443546 -18.39683,37.433336 -45.62247,36.104496 l -6.08299,0 0,-75.217697 0,0 z" /><polygon id="polygon17" points="146.822,282.928 135.303,282.928 135.303,342.688 163.382,342.688 163.382,332.607 146.822,332.607 146.822,282.928 " transform="matrix(4.2243018,0,0,4.1787607,241.5014,-1185.7744)" /><path id="path19" d="m 1115.728,195.08458 21.2905,51.14803 51.7055,0 -94.2864,-255.7401619 -39.5395,0 -100.36944,255.7401619 51.70124,0 21.2947,-51.14803 88.2034,0 0,0 z m -12.1659,-39.10902 -60.83,0 27.3735,-93.269947 33.4565,93.269947 0,0 z" /><polygon id="polygon21" points="273.542,342.688 273.542,302.368 305.223,344.127 313.862,344.127 313.862,282.928 301.623,282.928 301.623,323.248 269.942,281.487 261.303,281.487 261.303,342.688 261.303,342.688 " transform="matrix(4.2243018,0,0,4.1787607,110.7992,-1185.7744)" /><path id="path23" d="m 1584.2051,113.84946 0,39.11321 54.7469,0 c -1.1406,31.43263 -27.1453,58.06388 -57.7885,57.16544 -48.3936,0.89844 -72.3749,-45.36463 -72.9958,-87.25252 0.6209,-41.327946 24.2643,-89.592632 72.9958,-90.261233 25.574,0.664423 47.1939,17.972849 57.7885,39.1132 l 42.5809,-21.060954 C 1662.8066,11.645336 1624.978,-9.9922881 1581.1635,-9.5075519 1505.747,-9.9881094 1457.4507,51.590109 1456.4622,122.87559 c 0.9885,69.50951 47.9373,131.42202 121.6599,132.38313 79.6196,-0.96111 116.4344,-63.87235 115.5767,-135.39184 l 0,-6.01742 -109.4937,0 0,0 z" /></g></g></svg>
